<?xml version="1.0" encoding="UTF-8"?>
<svg width="337px" height="100px" viewBox="0 0 337 100" version="1.1" xmlns="http://www.w3.org/2000/svg" xmlns:xlink="http://www.w3.org/1999/xlink">
    <!-- Generator: Sketch 56.3 (81716) - https://sketch.com -->
    <title>Group</title>
    <desc>Created with Sketch.</desc>
    <g id="branding_guidelines" stroke="none" stroke-width="1" fill="none" fill-rule="evenodd">
        <g id="Artboard" transform="translate(-278.000000, -307.000000)">
            <g id="Group" transform="translate(278.000000, 307.000000)">
                <polygon id="Path" fill="#535353" points="10.3464819 0.141453054 0 18.1850034 20.2885588 18.1850034"></polygon>
                <polygon id="Path-2" fill="#535353" points="0 20.1168654 20.2885588 20.1168654 20.2885588 99.8582447 0 99.8582447"></polygon>
                <polygon id="Path" fill="#000000" transform="translate(192.054265, 89.655172) rotate(-270.000000) translate(-192.054265, -89.655172) " points="192.256468 80.6333972 181.909986 98.6769476 202.198544 98.6769476"></polygon>
                <path d="M57.0232371,19.8549342 C69.5991986,19.8549342 73.9050255,24.6247502 73.9050255,24.6247502 C73.9050255,24.6247502 68.4597604,34.2425672 68.4597604,34.2425672 C68.4597604,34.2425672 64.5718024,31.2358242 58.1272161,31.2358242 C50.0358538,31.2358242 42.7429155,36.5928191 42.7429155,45.6229455 C42.7429155,51.5543927 48.9236671,59.9875551 58.4452309,59.9875551 C63.9696278,59.9875551 68.4597604,57.1091736 68.6617481,57.1091736 C68.8637358,57.1091736 73.4625097,67.0925761 73.4625097,67.0925761 C73.4625097,67.0925761 68.6617481,71.0666642 57.5831435,71.0666642 C39.2263094,71.0666642 30.1606512,57.7537887 30.1606512,45.6229455 C30.1606512,33.4921024 40.4657125,19.8549342 57.0232371,19.8549342 Z" id="Rectangle" fill="#535353"></path>
                <path d="M82.0809578,20.1168654 L93.4431852,20.1168654 L93.4431852,54.4582283 C94.352837,58.1444462 96.9567837,59.9875551 101.255025,59.9875551 C101.255025,59.9875551 101.255025,63.6806761 101.255025,71.0669182 C88.4723137,70.633174 82.0809578,65.096944 82.0809578,54.4582283 C82.0809578,43.8195127 82.0809578,32.3723917 82.0809578,20.1168654 Z M120.429093,20.1168654 C120.429093,32.3723917 120.429093,43.8195127 120.429093,54.4582283 C120.429093,65.096944 114.037737,70.633174 101.255025,71.0669182 C101.255025,63.6806761 101.255025,59.9875551 101.255025,59.9875551 C105.553267,59.9875551 108.157214,58.1444462 109.066866,54.4582283 L109.066866,20.1168654 L120.429093,20.1168654 Z" id="Combined-Shape" fill="#535353"></path>
                <polygon id="Path-4" fill="#535353" points="128.96752 20.1168654 128.96752 30.7561525 140.882252 30.7561525 140.882252 71.0666642 152.055269 71.0666642 152.055269 30.7561525 164.267894 30.7561525 164.267894 20.1168654"></polygon>
                <polygon id="Path-4-Copy" fill="#535353" points="169.847861 20.1168654 169.847861 30.7561525 181.762592 30.7561525 181.762592 71.0666642 192.935609 71.0666642 192.935609 30.7561525 205.148234 30.7561525 205.148234 20.1168654"></polygon>
                <polygon id="Path-5" fill="#535353" points="213.856788 20.1168654 213.856788 71.0666642 225.215181 71.0666642 225.215181 20.1168654"></polygon>
                <polygon id="Path-6" fill="#535353" points="237.024262 71.0666642 248.574735 71.0666642 248.574735 39.8967106 268.956863 71.0666642 279.510626 71.0666642 279.510626 20.1168654 268.072845 20.1168654 268.072845 51.5295717 247.684088 20.1168654 237.024262 20.1168654"></polygon>
                <polygon id="Path-7" fill="#030303" points="242.864222 80.2850797 242.864222 83.8358816 247.200495 83.8358816 247.200495 97.5806612 251.591798 97.5806612 251.591798 83.8358816 255.673356 83.8358816 255.673356 80.2850797"></polygon>
                <path d="M325.053945,36.4481953 L332.43883,28.5887055 C327.14515,22.9408121 320.589858,20.1168654 312.772956,20.1168654 C301.047602,20.1168654 289.510032,30.8434627 289.510032,45.5917648 C289.510032,60.3400669 300.491967,71.0666642 312.772956,71.0666642 C320.960282,71.0666642 327.515573,68.1493762 332.43883,62.3148002 C335.012357,58.4479357 336.29912,55.7160642 336.29912,54.1191855 C336.29912,52.5223069 336.29912,48.7431893 336.29912,42.7818329 L313.693869,42.7818329 L313.693869,51.546373 L325.053945,51.546373 L325.053945,54.1191855 C322.228324,58.8615179 318.441632,61.2326841 313.693869,61.2326841 C306.572225,61.2326841 301.755007,52.7764641 301.755007,45.5917648 C301.755007,38.4070656 306.469329,30.2350311 312.904576,30.2350311 C318.724737,30.2350311 322.774527,32.3060858 325.053945,36.4481953 Z" id="Path-8" fill="#535353"></path>
                <path d="M229.025057,97.5806612 L229.025057,80.2850797 L237.024262,80.2850797 C239.809309,80.8633149 241.201832,82.7113224 241.201832,85.8291021 C241.201832,88.9468818 239.809309,90.628671 237.024262,90.8744696 L233.079709,90.8744696 L233.079709,97.5806612 L229.025057,97.5806612 Z M233.109141,88.111699 L235.235748,88.111699 C236.490415,87.8279748 237.117748,87.0163508 237.117748,85.6768268 C237.117748,84.3373028 236.490415,83.5256788 235.235748,83.2419546 L233.109141,83.2419546 L233.109141,88.111699 Z" id="Combined-Shape" fill="#030303"></path>
                <circle id="Oval" fill="#030303" cx="273.638299" cy="94.8230607" r="2.75760058"></circle>
                <circle id="Oval-Copy" fill="#030303" cx="332.530578" cy="94.8230607" r="2.75760058"></circle>
                <polygon id="Path-11" fill="#030303" points="267.867194 80.2850797 267.867194 83.8477187 261.863273 83.8477187 261.863273 87.2850474 267.867194 87.2850474 267.867194 90.6952786 261.863273 90.6952786 261.863273 94.2464172 267.867194 94.2464172 267.867194 97.5806612 257.990124 97.5806612 257.990124 80.2850797"></polygon>
                <polygon id="Path-12" fill="#030303" points="286.943827 80.2850797 286.943827 97.5806612 297.159457 97.5806612 297.159457 93.8574907 291.161078 93.8574907 291.161078 80.2850797"></polygon>
                <polygon id="Path-13" fill="#030303" points="302.65996 97.5806612 306.723432 97.5806612 306.723432 83.8319369 310.981994 83.8319369 310.981994 80.2850797 298.897363 80.2850797 298.897363 83.8319369 302.65996 83.8319369"></polygon>
                <path d="M313.738334,80.2850797 L321.343762,80.2850797 C325.381365,81.4393096 327.400166,84.3219065 327.400166,88.9328705 C327.400166,93.5438344 325.381365,96.4264314 321.343762,97.5806612 L313.738334,97.5806612 L313.738334,80.2850797 Z M317.53675,83.9353325 L317.53675,94.0253593 L320.56925,94.0253593 C322.183543,93.6935008 322.99069,91.9960045 322.99069,88.9328705 C322.99069,85.8697365 322.183543,84.2038905 320.56925,83.9353325 L317.53675,83.9353325 Z" id="Combined-Shape" fill="#030303"></path>
                <polygon id="Path-2" fill="#000000" transform="translate(90.583386, 89.655172) rotate(-270.000000) translate(-90.583386, -89.655172) " points="80.439107 -0.862068966 100.727666 -0.862068966 100.727666 180.172414 80.439107 180.172414"></polygon>
            </g>
        </g>
    </g>
</svg>